<svg xmlns="http://www.w3.org/2000/svg" height="24px" viewBox="0 -960 960 960" width="24px" fill="#e3e3e3"><path d="M480-560h200v-80H480v80Zm0 240h200v-80H480v80Zm-63.5-223.5Q440-567 440-600t-23.5-56.5Q393-680 360-680t-56.5 23.5Q280-633 280-600t23.5 56.5Q327-520 360-520t56.5-23.5Zm0 240Q440-327 440-360t-23.5-56.5Q393-440 360-440t-56.5 23.5Q280-393 280-360t23.5 56.5Q327-280 360-280t56.5-23.5ZM200-120q-33 0-56.5-23.5T120-200v-560q0-33 23.5-56.5T200-840h560q33 0 56.5 23.5T840-760v560q0 33-23.5 56.5T760-120H200Zm0-80h560v-560H200v560Zm0-560v560-560Z"/></svg>