<svg xmlns="http://www.w3.org/2000/svg" width="24px" height="24px" viewBox="0 0 960 960" fill="#e3e3e3"><path d="m629.44,480c-9.8,0-18.19-3.49-25.17-10.47-6.98-6.98-10.47-15.37-10.47-25.17v-178.17c0-9.8,3.49-18.19,10.47-25.17s15.37-10.47,25.17-10.47h17.82v-35.63c0-24.65,8.69-45.66,26.06-63.03,17.37-17.37,38.38-26.06,63.03-26.06s45.66,8.69,63.03,26.06c17.37,17.37,26.06,38.38,26.06,63.03v35.63h17.82c9.8,0,18.19,3.49,25.17,10.47s10.47,15.37,10.47,25.17v178.17c0,9.8-3.49,18.19-10.47,25.17-6.98,6.98-15.37,10.47-25.17,10.47h-213.81Zm53.45-249.44h106.9v-35.63c0-14.85-5.2-27.47-15.59-37.86-10.39-10.39-23.01-15.59-37.86-15.59s-27.47,5.2-37.86,15.59c-10.39,10.39-15.59,23.01-15.59,37.86v35.63Z"/><path d="m570,540.52v17.48l-98-58h-182v-80h182l74.02-43.81v-93.8l-96.02,57.61h-160c-22,0-40.83,7.83-56.5,23.5s-23.5,34.5-23.5,56.5v80c0,22,7.83,40.83,23.5,56.5,15.67,15.67,34.5,23.5,56.5,23.5h40v160h80v-160h40l200,120v-158.68c-32.68-.17-61.15-.43-80-.8Z"/><path d="m690,541.47v52.53c16.4-14.58,29.89-32.08,40.48-52.48-13.6,0-27.19-.02-40.48-.05Z"/></svg>
