<svg xmlns="http://www.w3.org/2000/svg" width="24px" height="24px" viewBox="0 0 960 960" fill="#e3e3e3"><path d="m629.44,480c-9.8,0-18.19-3.49-25.17-10.47-6.98-6.98-10.47-15.37-10.47-25.17v-178.17c0-9.8,3.49-18.19,10.47-25.17s15.37-10.47,25.17-10.47h17.82v-35.63c0-24.65,8.69-45.66,26.06-63.03,17.37-17.37,38.38-26.06,63.03-26.06s45.66,8.69,63.03,26.06c17.37,17.37,26.06,38.38,26.06,63.03v35.63h17.82c9.8,0,18.19,3.49,25.17,10.47s10.47,15.37,10.47,25.17v178.17c0,9.8-3.49,18.19-10.47,25.17-6.98,6.98-15.37,10.47-25.17,10.47h-213.81Zm53.45-249.44h106.9v-35.63c0-14.85-5.2-27.47-15.59-37.86-10.39-10.39-23.01-15.59-37.86-15.59s-27.47,5.2-37.86,15.59c-10.39,10.39-15.59,23.01-15.59,37.86v35.63Z"/><path d="m509.24,447.5H197l-47,47V167.5h359.24v-80H150c-22,0-40.83,7.83-56.5,23.5s-23.5,34.5-23.5,56.5v520l160-160h279.24v-80Z"/><path d="m741.83,563.08c-3.79,7.51-8.9,14.48-15.33,20.92-15.67,15.67-34.5,23.5-56.5,23.5H230v40c0,22,7.83,40.83,23.5,56.5s34.5,23.5,56.5,23.5h400l160,160v-325c-33.87.38-80.75.57-128.17.58Z"/></svg>
