<svg xmlns="http://www.w3.org/2000/svg" width="24px" height="24px" viewBox="0 0 960 960" fill="#e3e3e3"><path d="m878.89,472.87h-118.89v46.8c0,22-7.83,40.83-23.5,56.5-15.67,15.67-34.5,23.5-56.5,23.5H240v40c0,22,7.83,40.83,23.5,56.5,15.67,15.67,34.5,23.5,56.5,23.5h400l160,160v-406.82c-.37,0-.74.02-1.11.02Z"/><path d="m600,519.67c22,0,40.83-7.83,56.5-23.5,7.11-7.11,12.59-14.88,16.48-23.3h-138.02c-24.31,0-46.82-12.61-59.54-33.2H207l-47,47V159.67h434.87l41.38-71.48c-10.94-5.67-23.02-8.52-36.25-8.52H160c-22,0-40.83,7.83-56.5,23.5s-23.5,34.5-23.5,56.5v520l160-160h360Z"/><path d="m534.96,402.87l171.97-297.03,171.97,297.03h-343.93Zm183.1-51.39c3-3,4.49-6.71,4.49-11.14s-1.5-8.14-4.49-11.14c-3-3-6.71-4.49-11.14-4.49s-8.14,1.5-11.14,4.49-4.49,6.71-4.49,11.14,1.5,8.14,4.49,11.14c3,3,6.71,4.49,11.14,4.49s8.14-1.5,11.14-4.49Zm-26.77-42.41h31.27v-78.17h-31.27v78.17Z"/></svg>
