<svg xmlns="http://www.w3.org/2000/svg" width="24px" height="24px" viewBox="0 0 960 960" fill="#e3e3e3"><path d="m641.78,472.87h-80l-21.78,87.13h-160l40-160h45.02c.46-11.15,3.57-22.22,9.35-32.21l27.67-47.79h-62.05l40-160h-80l-40,160h-160l-20,80h160l-40,160h-160l-20,80h160l-40,160h80l40-160h160l-40,160h80l40-160h160l20-80h-160l21.78-87.13Z"/><path d="m534.96,402.87l171.97-297.03,171.97,297.03h-343.93Zm183.1-51.39c3-3,4.49-6.71,4.49-11.14s-1.5-8.14-4.49-11.14c-3-3-6.71-4.49-11.14-4.49s-8.14,1.5-11.14,4.49-4.49,6.71-4.49,11.14,1.5,8.14,4.49,11.14c3,3,6.71,4.49,11.14,4.49s8.14-1.5,11.14-4.49Zm-26.77-42.41h31.27v-78.17h-31.27v78.17Z""/></svg>
