<svg xmlns="http://www.w3.org/2000/svg" width="24px" height="24px" viewBox="0 0 960 960" fill="#e3e3e3"><path d="m628.72,525.13c-19.52-.06-39.03-.18-58.55-.39-7.1-.03-14.19-.14-21.29-.28l-8.88,35.53h-160l40-160h120.92v-80h-100.92l40-160h-80l-40,160h-160l-20,80h160l-40,160h-160l-20,80h160l-40,160h80l40-160h160l-40,160h80l40-160h160l20-80h-160l8.72-34.87Z"/><path d="m629.44,480c-9.8,0-18.19-3.49-25.17-10.47-6.98-6.98-10.47-15.37-10.47-25.17v-178.17c0-9.8,3.49-18.19,10.47-25.17s15.37-10.47,25.17-10.47h17.82v-35.63c0-24.65,8.69-45.66,26.06-63.03,17.37-17.37,38.38-26.06,63.03-26.06s45.66,8.69,63.03,26.06c17.37,17.37,26.06,38.38,26.06,63.03v35.63h17.82c9.8,0,18.19,3.49,25.17,10.47s10.47,15.37,10.47,25.17v178.17c0,9.8-3.49,18.19-10.47,25.17-6.98,6.98-15.37,10.47-25.17,10.47h-213.81Zm53.45-249.44h106.9v-35.63c0-14.85-5.2-27.47-15.59-37.86-10.39-10.39-23.01-15.59-37.86-15.59s-27.47,5.2-37.86,15.59c-10.39,10.39-15.59,23.01-15.59,37.86v35.63Z"/></svg>
