<svg xmlns="http://www.w3.org/2000/svg" width="24px" height="24px" viewBox="0 0 960 960" fill="#e3e3e3"><path d="m628.72,525.13c-19.52-.06-39.03-.18-58.55-.39-7.1-.03-14.19-.14-21.29-.28l-8.88,35.53h-160l40-160h120.92v-80h-100.92l40-160h-80l-40,160h-160l-20,80h160l-40,160h-160l-20,80h160l-40,160h80l40-160h160l-40,160h80l40-160h160l20-80h-160l8.72-34.87Z"/><path d="m626.11,480c-8.4,0-15.6-2.99-21.58-8.98-5.98-5.98-8.98-13.18-8.98-21.58v-152.78c0-8.4,2.99-15.6,8.98-21.58,5.98-5.98,13.18-8.98,21.58-8.98h15.28v-30.56c0-21.13,7.45-39.15,22.34-54.05s32.91-22.34,54.05-22.34,39.15,7.45,54.05,22.34,22.34,32.91,22.34,54.05v30.56h15.28c8.4,0,15.6,2.99,21.58,8.98,5.98,5.98,8.98,13.18,8.98,21.58v152.78c0,8.4-2.99,15.6-8.98,21.58-5.98,5.98-13.18,8.98-21.58,8.98h-183.33Zm45.83-213.89h91.67v-30.56c0-12.73-4.46-23.55-13.37-32.47s-19.73-13.37-32.47-13.37-23.55,4.46-32.47,13.37c-8.91,8.91-13.37,19.73-13.37,32.47v30.56Z"/></svg>
