<svg xmlns="http://www.w3.org/2000/svg" viewBox="0 0 26.999599 18" fill="white" width="18px" height="18px"><g transform="matrix(.7848 0 0 .7848 .16435 -2.9114e-5)" fill-rule="evenodd"><path d="m33.374 0.064783-13.438 8.556c-0.2322 0.14822-0.41986 0.35292-0.544 0.59417l-2.0487 3.9849c-0.14443 0.28137-0.55823 0.28137-0.70293 0l-2.049-3.9849c-0.12361-0.24124-0.31127-0.44594-0.54347-0.59417l-13.438-8.556c-0.33657-0.21441-0.74826 0.14337-0.56535 0.49143l5.571 10.603c0.13284 0.25351-0.056667 0.55379-0.35028 0.55379h-3.3341c-0.38191 0-0.53926 0.47482-0.22878 0.69051l15.061 10.461c0.13653 0.09507 0.3205 0.09507 0.45729 0l15.061-10.461c0.31048-0.21569 0.15313-0.69051-0.22878-0.69051h-3.3344c-0.29335 0-0.48312-0.30028-0.35002-0.55379l5.5713-10.603c0.18291-0.34807-0.22904-0.70584-0.56561-0.49143"/></g></svg>