<svg xmlns="http://www.w3.org/2000/svg" width="24px" height="24px" viewBox="0 0 960 960" fill="#e3e3e3"><path d="m360,520l-120,160h480l-97.68-130.24c-25.5-1.69-49.26-12.45-67.54-30.73-2.72-2.72-5.27-5.57-7.66-8.53l-97.12,129.5-90-120Z"/><path d="m760,550v210H200V200h347.16c2.37-2.94,4.91-5.77,7.62-8.47,7.18-7.18,15.19-13.19,23.83-17.96,2.45-19.03,8.21-37.01,17.1-53.57H200c-22,0-40.83,7.83-56.5,23.5s-23.5,34.5-23.5,56.5v560c0,22,7.83,40.83,23.5,56.5s34.5,23.5,56.5,23.5h560c22,0,40.83-7.83,56.5-23.5s23.5-34.5,23.5-56.5v-210h-80Z"/><path d="m629.44,480c-9.8,0-18.19-3.49-25.17-10.47-6.98-6.98-10.47-15.37-10.47-25.17v-178.17c0-9.8,3.49-18.19,10.47-25.17s15.37-10.47,25.17-10.47h17.82v-35.63c0-24.65,8.69-45.66,26.06-63.03,17.37-17.37,38.38-26.06,63.03-26.06s45.66,8.69,63.03,26.06c17.37,17.37,26.06,38.38,26.06,63.03v35.63h17.82c9.8,0,18.19,3.49,25.17,10.47s10.47,15.37,10.47,25.17v178.17c0,9.8-3.49,18.19-10.47,25.17-6.98,6.98-15.37,10.47-25.17,10.47h-213.81Zm53.45-249.44h106.9v-35.63c0-14.85-5.2-27.47-15.59-37.86-10.39-10.39-23.01-15.59-37.86-15.59s-27.47,5.2-37.86,15.59c-10.39,10.39-15.59,23.01-15.59,37.86v35.63Z"/></svg>
