<svg xmlns="http://www.w3.org/2000/svg" height="24px" viewBox="0 0 24 24" width="24px" fill="#e8eaed"><path d="M17.7516 12.8667C17.4035 13.3058 16.5507 13.6191 16.5507 13.6191L10.2065 15.8979V14.2173L14.8754 12.5538C15.4052 12.364 15.4866 12.0956 15.0559 11.9547C14.6261 11.8135 13.8477 11.854 13.3175 12.0446L10.2065 13.1403V11.3962L10.3858 11.3355C10.3858 11.3355 11.2848 11.0173 12.5488 10.8773C13.8129 10.738 15.3607 10.8963 16.5758 11.3569C17.9451 11.7896 18.0993 12.4275 17.7516 12.8667ZM10.8104 10.005V5.70728C10.8104 5.20255 10.7173 4.73788 10.2437 4.60633C9.88107 4.49017 9.65602 4.82693 9.65602 5.33126V16.0938L6.75349 15.1726V2.34009C7.9876 2.56918 9.78554 3.11075 10.7521 3.43658C13.2102 4.2805 14.0436 5.33085 14.0436 7.69748C14.0436 10.0042 12.6197 10.8785 10.8104 10.005ZM1.42767 14.0417C0.0219393 13.6458 -0.212012 12.8209 0.428722 12.3457C1.02089 11.907 2.02793 11.5767 2.02793 11.5767L6.18966 10.0969V11.7839L3.19485 12.8557C2.66583 13.0456 2.58447 13.3143 3.01432 13.4552C3.44458 13.596 4.22334 13.556 4.75317 13.3657L6.18966 12.8444V14.3537C6.09859 14.3699 5.997 14.3861 5.90309 14.4019C4.4662 14.6367 2.9358 14.5387 1.42767 14.0417Z"/></svg>
