<svg xmlns="http://www.w3.org/2000/svg" height="24px" viewBox="0 0 960 960" width="24px" fill="#e3e3e3"><path d="m187,609c-18-40-27-83-27-129,0-89.33,31-165,93-227s137.67-93,227-93c34.66,0,67.26,4.69,97.81,14.02.27-.15.53-.31.81-.46,3.44-26.7,13.39-51.35,29.38-72.86-40.47-13.8-83.14-20.7-127.99-20.7-55.33,0-107.33,10.5-156,31.5-48.67,21-91,49.5-127,85.5s-64.5,78.33-85.5,127-31.5,100.67-31.5,156,11.17,110.83,33.5,160.5c22.33,49.67,52.5,92.83,90.5,129.5l57-57c-31.33-29.33-56-64-74-104Z"/><path d="m334.5,546.5c-9.67-20.33-14.5-42.5-14.5-66.5,0-44,15.67-81.67,47-113,31.33-31.33,69-47,113-47,15.37,0,29.97,1.92,43.8,5.74v-59.55c0-7.54.8-14.96,2.33-22.17-14.81-2.67-30.18-4.02-46.13-4.02-66.67,0-123.33,23.33-170,70-46.67,46.67-70,103.33-70,170,0,35.33,7,68.17,21,98.5,14,30.33,32.67,56.5,56,78.5l57-57c-16.67-15.33-29.83-33.17-39.5-53.5Z"/><path d="m523.8,444.36v-31.37c-12.85-8.65-27.45-12.99-43.8-12.99-22,0-40.83,7.83-56.5,23.5-15.67,15.67-23.5,34.5-23.5,56.5,0,15.33,3.67,28.83,11,40.5,7.33,11.67,17,21.17,29,28.5v331h80v-331c12-6.67,21.67-16,29-28,1.01-1.65,1.94-3.34,2.82-5.06-18.1-19.58-28.02-44.83-28.02-71.58Z"/><path d="m843.26,550h-50.7c-4.49,20.47-10.99,40.31-19.55,59.5-18,40.33-42.33,75.17-73,104.5l56,56c38-36,68.17-79,90.5-129,13.66-30.57,23.13-62.52,28.43-95.83-10.12,3.18-20.77,4.83-31.67,4.83Z"/><path d="m629.45,550c-1.94,0-3.88-.06-5.8-.16-9.47,19.06-22.02,35.78-37.65,50.16l57,57c23.33-21.33,42-47.33,56-78,4.31-9.44,7.95-19.11,10.94-29h-80.49Z"/><path d="m868.43,241.02c-6.98-6.98-15.37-10.47-25.17-10.47h-17.82v-35.63c0-24.65-8.69-45.66-26.06-63.03-17.37-17.37-38.38-26.06-63.03-26.06s-45.66,8.69-63.03,26.06-26.06,38.38-26.06,63.03v35.63h-17.82c-9.8,0-18.19,3.49-25.17,10.47-6.98,6.98-10.47,15.37-10.47,25.17v178.17c0,9.8,3.49,18.19,10.47,25.17,6.98,6.98,15.37,10.47,25.17,10.47h213.82c9.8,0,18.19-3.49,25.17-10.47,6.98-6.98,10.47-15.37,10.47-25.17v-178.17c0-9.8-3.49-18.19-10.47-25.17Zm-78.64-10.46h-106.9v-35.63c0-14.85,5.2-27.47,15.59-37.86,10.39-10.39,23.01-15.59,37.86-15.59s27.47,5.2,37.86,15.59c10.39,10.39,15.59,23.01,15.59,37.86v35.63Z"/></svg>
