<svg xmlns="http://www.w3.org/2000/svg" height="24px" viewBox="0 0 24 24" width="24px" fill="#e8eaed"><path d="M19 14a1 1 0 0 1 1 1v3h3a1 1 0 1 1 0 2h-3v3a1 1 0 0 1-2 0v-3h-3a1 1 0 0 1 0-2h3v-3a1 1 0 0 1 1-1ZM12 19c0-.22.03-.44.08-.66a.56.56 0 0 0-.21-.58l-8.84-6.22a1 1 0 0 0-1.3.13l-.69.69a1 1 0 0 0 0 1.41l9.2 9.2a1 1 0 0 0 1.4 0l.36-.36a1 1 0 0 0 0-1.41l-.35-.36.37-.37a.56.56 0 0 0 .12-.56A3 3 0 0 1 12 19ZM15 16h.16c.33 0 .56-.32.3-.53a.98.98 0 0 0-.07-.06L6.9 9.76a1 1 0 1 0-1.1 1.66l7.3 4.88c.17.1.39.1.56.02.4-.2.86-.32 1.34-.32ZM15.82 13.39c.25.17.6.07.77-.17.12-.17.26-.32.42-.46.29-.26.32-.76 0-.98L9.73 6.93a1 1 0 0 0-1.11 1.66l7.2 4.8ZM12 2.81a1 1 0 0 1 0-1.41l.36-.36a1 1 0 0 1 1.41 0l9.2 9.2a1 1 0 0 1 0 1.4l-.7.7a1 1 0 0 1-1.3.13l-9.54-6.72a1 1 0 0 1-.08-1.58l1-1L12 2.8Z"></path></svg>
