<svg xmlns="http://www.w3.org/2000/svg" width="24px" height="24px" viewBox="0 0 960 960" fill="#e3e3e3"><path d="m629.44,480c-9.8,0-18.19-3.49-25.17-10.47-6.98-6.98-10.47-15.37-10.47-25.17v-178.17c0-9.8,3.49-18.19,10.47-25.17s15.37-10.47,25.17-10.47h17.82v-35.63c0-24.65,8.69-45.66,26.06-63.03,17.37-17.37,38.38-26.06,63.03-26.06s45.66,8.69,63.03,26.06c17.37,17.37,26.06,38.38,26.06,63.03v35.63h17.82c9.8,0,18.19,3.49,25.17,10.47s10.47,15.37,10.47,25.17v178.17c0,9.8-3.49,18.19-10.47,25.17-6.98,6.98-15.37,10.47-25.17,10.47h-213.81Zm53.45-249.44h106.9v-35.63c0-14.85-5.2-27.47-15.59-37.86-10.39-10.39-23.01-15.59-37.86-15.59s-27.47,5.2-37.86,15.59c-10.39,10.39-15.59,23.01-15.59,37.86v35.63Z"/><path d="m560,566.71v74.29c31.33-14.67,55.83-36.5,73.5-65.5,1.6-2.62,3.11-5.27,4.56-7.93-33.82-.16-62.66-.45-78.06-.86Z"/><path d="m120,361v240h160l200,200V161l-200,200H120Zm280-6v252l-86-86h-114v-80h114l86-86Z"/><path d="m746.69,567.65c-9.16,28.5-23.06,55.28-41.69,80.35-36.67,49.33-85,82.67-145,100v82c82.67-18.67,150-60.5,202-125.5,33.42-41.77,56.08-87.61,68.02-137.51-19.79.34-49.96.56-83.33.66Z"/></svg>
