<svg xmlns="http://www.w3.org/2000/svg" height="24px" viewBox="0 0 24 24" width="24px" fill="#e8eaed"><path d="M8.95185131,8.62650012 L8.92775494,8.65059649 C3.20486729,14.2891468 -0.0119979765,21.9758886 5.02080018e-05,29.9999795 C-0.0119979765,36.56624 2.14462705,42.9517778 6.13257613,48.1686417 C6.16872068,48.2168345 6.24100979,48.252979 6.28920253,48.2168345 C6.33739527,48.1806899 6.34944345,48.120449 6.32534708,48.0602081 C4.03619202,40.9879237 15.722931,23.8433572 21.7711196,16.6626392 C21.795216,16.6385428 21.8193124,16.6144465 21.8193124,16.5783019 C21.8193124,16.5421573 21.795216,16.5060128 21.7590715,16.4819164 C11.6024519,6.37348961 8.8795622,8.68674104 8.92775494,8.65059649 M51.048208,8.62650012 L51.0723044,8.65059649 C56.795192,14.2770987 60.0000091,21.9758886 59.9879609,29.9999795 C60.0000091,36.56624 57.8433841,42.9517778 53.855435,48.1686417 C53.8192905,48.2168345 53.7470014,48.252979 53.6988086,48.2168345 C53.6506159,48.1806899 53.6506159,48.120449 53.6626641,48.0602081 C55.9518191,40.9879237 44.2650801,23.831309 38.2289397,16.650591 C38.2048433,16.6264946 38.180747,16.6023983 38.180747,16.5662537 C38.180747,16.518061 38.2048433,16.4939646 38.2409879,16.4698682 C48.4096556,6.36144143 51.0964008,8.68674104 51.0602562,8.65059649 M30.0000297,0 C36.0482183,0 41.0361667,1.66264946 45.626525,4.38553917 C45.6867659,4.40963554 45.6988141,4.48192464 45.6747177,4.53011738 C45.6506214,4.57831012 45.5903804,4.5903583 45.5301395,4.57831012 C39.7229146,3.32529893 30.8915953,8.33734369 30.0602706,8.84336744 C30.0361742,8.85541562 30.024126,8.86746381 30.0000297,8.86746381 C29.9759333,8.86746381 29.9518369,8.85541562 29.9397887,8.84336744 C27.7229228,7.56625988 19.5663019,3.28915437 14.4217271,4.61445467 C14.3614862,4.62650286 14.3012452,4.61445467 14.2771489,4.56626193 C14.2530525,4.50602101 14.2771489,4.44578009 14.3253416,4.42168372 C18.9156999,1.66264946 23.9638892,0 30.0000297,0 M30.0000297,24.0602245 C30.0361742,24.0602245 30.0723188,24.0843209 30.0964151,24.1084172 C39.0723126,30.9397379 54.4337479,47.8071962 49.7470041,52.5782773 L49.7590523,52.5662291 L49.7590523,52.5782773 L49.7470041,52.5782773 C44.2771283,57.3734547 37.2650849,60.0120071 30.0000297,59.9999589 C22.7349744,60.0120071 15.7108828,57.3734547 10.2530552,52.5782773 L10.2410071,52.5662291 L10.2530552,52.5782773 C5.56631146,47.8071962 20.9277467,30.9276897 29.9036442,24.1084172 C29.9156924,24.0843209 29.9638851,24.0602245 30.0000297,24.0602245"/></svg>
