<svg width="12" height="12" viewBox="0 0 12 12"><g><path d="M4.37746 2.52061C4.51025 2.76273 4.72386 3 5 3C5.27614 3 5.50639 2.77265 5.43803 2.5051C5.25768 1.79932 4.70086 1.24234 3.9949 1.06196C3.72735 0.993602 3.5 1.22386 3.5 1.5C3.5 1.77614 3.73727 1.98975 3.97939 2.12254C4.147 2.21445 4.28555 2.353 4.37746 2.52061Z" fill="currentColor"></path><path d="M9.4949 6.56196C9.22735 6.4936 9 6.72386 9 7C9 7.27614 9.23727 7.48973 9.47942 7.62245C9.64708 7.71434 9.78566 7.85288 9.87757 8.02058C10.0103 8.26273 10.2239 8.5 10.5 8.5C10.7761 8.5 11.0064 8.27265 10.938 8.0051C10.7577 7.29932 10.2009 6.74234 9.4949 6.56196Z" fill="currentColor"></path><path d="M7.60605 2.63688L7.8639 1.60664C7.93091 1.33888 7.76818 1.0675 7.50043 1.00049C7.23268 0.933476 6.9613 1.09621 6.89429 1.36396L6.63643 2.3942C6.56942 2.66196 6.73215 2.93334 6.9999 3.00035C7.26765 3.06736 7.53903 2.90463 7.60605 2.63688Z" fill="currentColor"></path><path d="M9.60762 5.36378L10.6368 5.10596C10.9048 5.03883 11.0676 4.76715 11.0005 4.49916C10.9333 4.23117 10.6617 4.06834 10.3937 4.13548L9.36449 4.3933C9.0965 4.46044 8.93368 4.73211 9.00081 5.0001C9.06795 5.2681 9.33962 5.43092 9.60762 5.36378Z" fill="currentColor"></path><path d="M3.21258 5.32202L1.04158 10.301C0.959577 10.489 1.00108 10.708 1.14658 10.8535C1.29258 10.9995 1.51208 11.0405 1.69958 10.9585L6.68308 8.78702C6.01308 8.57802 5.27008 8.09802 4.58608 7.41452C3.87808 6.70602 3.41458 5.98052 3.21258 5.32202Z" fill="currentColor"></path><path d="M4.26876 3.76781C3.58783 4.44865 4.30472 5.78649 5.25933 6.74116C6.06449 7.54677 7.49921 8.46452 8.23152 7.73275C8.91198 7.05191 8.19509 5.71406 7.24094 4.75893C6.46147 3.97856 5.00994 3.02623 4.26876 3.76781Z" fill="currentColor"></path><path d="M9.70696 2.99969L10 2.70655C10.1951 2.51136 10.1951 2.19494 9.99991 1.99981C9.80472 1.80467 9.4883 1.80472 9.29316 1.99991L9.00011 2.29304C8.80498 2.48823 8.80502 2.80465 9.00021 2.99979C9.1954 3.19492 9.51182 3.19488 9.70696 2.99969Z" fill="currentColor"></path></g><defs><clipPath id="clip0_776_38422"><rect width="12" height="12" fill="currentColor"></rect></clipPath></defs></svg>
