<svg id="Layer_1" data-name="Layer 1" xmlns="http://www.w3.org/2000/svg" viewBox="0 0 20 20">
  <defs>
    <style>
      .cls-1{fill:#ff73fa}.cls-4{fill:#373be1}.cls-5{fill:none}.cls-8{fill:#aec7ff}
    </style>
  </defs>
  <path class="cls-1" d="M19.15 17c.26.11.45 0 .36-.27l-.62-1.58-.61-1.59a.61.61 0 0 0-.61-.37l-4 1.09c-.27.08-.11.51.25.65Z"/>
  <path d="M9.8 14 7.08 8.67.44 18a.82.82 0 0 0 .66 1.3h11.42Z" fill="#8086ff"/>
  <path d="M12.27 19c-.7 0-2.34-1.69-3.74-4.43a15.31 15.31 0 0 1-1.46-3.9C6.84 9.55 7 9 7.2 8.9h.13c.71 0 2.34 1.69 3.74 4.42 1.61 3.14 1.86 5.44 1.33 5.71a.28.28 0 0 1-.13-.03Z" fill="#05124a"/>
  <path class="cls-4" d="M7.33 9.15c.53 0 2.09 1.52 3.5 4.28 1.62 3.14 1.69 5.12 1.44 5.34-.53 0-2.09-1.52-3.5-4.28-1.62-3.14-1.69-5.13-1.45-5.34m0-.54a.51.51 0 0 0-.25.06c-.84.42-.29 3.14 1.21 6.07 1.37 2.66 3.06 4.57 4 4.57a.51.51 0 0 0 .25-.06c.84-.43.3-3.14-1.21-6.07-1.36-2.66-3.06-4.57-4-4.57ZM3.54 17.22a12.62 12.62 0 0 1-.91-2.33L1.41 16.6A13.28 13.28 0 0 0 2 18a12.78 12.78 0 0 0 .73 1.25h2.12a12 12 0 0 1-1.31-2.03ZM6.83 19.25h2.4a11.69 11.69 0 0 1-2.76-3.53 11.77 11.77 0 0 1-1.28-4.42l-1.41 2A13.63 13.63 0 0 0 5 16.5a13.44 13.44 0 0 0 1.83 2.75Z"/>
  <path class="cls-5" d="M10.83 13.43C9.39 10.62 7.9 9.21 7.35 9.15l5 9.58c.17-.21.09-2.19-1.52-5.3ZM8.77 14.49c1.44 2.81 2.93 4.21 3.48 4.28l-5-9.58c-.15.38-.02 2.31 1.52 5.3Z"/>
  <path fill="#ffb54b" d="M7.35 9.15z"/>
  <path class="cls-4" d="M12.27 18.77c-.55-.07-2-1.47-3.48-4.28-1.54-3-1.67-4.92-1.47-5.3L7 8.69c-.78.5-.23 3.17 1.25 6.05 1.32 2.57 3 4.45 3.89 4.56a.55.55 0 0 0 .34-.05Z"/>
  <path d="M15.59 9.23 14.62 8a.43.43 0 0 0-.4-.16l-3.36.44a.44.44 0 0 0-.34.26l-1.3 3.14a.4.4 0 0 0 .06.42l1 1.27a.43.43 0 0 0 .4.16l3.32-.48a.44.44 0 0 0 .34-.26l1.3-3.14a.4.4 0 0 0-.05-.42Z" fill="#ffd836"/>
  <path class="cls-8" d="m12.68 10.21-1.27-.47a.31.31 0 0 1-.13-.5l3.44-4a.31.31 0 0 1 .35-.09l1.27.46a.33.33 0 0 1 .13.51l-3.44 4a.31.31 0 0 1-.35.09ZM11.61 17.25l-.26-.92a.22.22 0 0 1 .24-.28l3.72.32a.21.21 0 0 1 .19.16l.26.92a.23.23 0 0 1-.24.29l-3.72-.32a.22.22 0 0 1-.19-.17Z"/>
  <path class="cls-1" d="m10.51 4.87-1-.07a.23.23 0 0 1-.2-.33L10.93.9a.22.22 0 0 1 .23-.13l1 .07a.23.23 0 0 1 .2.33l-1.62 3.56a.23.23 0 0 1-.23.14Z"/>
  <path d="m9.12 3.16.27.73a.2.2 0 0 0 .17.11h.81c.19 0 .24.26.08.41l-.68.66a.37.37 0 0 0-.1.23v.83a.31.31 0 0 1-.38.3L8.6 6.1a.25.25 0 0 0-.23 0l-.79.47c-.19.12-.37 0-.31-.22l.25-.86a.22.22 0 0 0 0-.21L7 4.81c-.13-.13 0-.39.19-.44l.81-.2A.35.35 0 0 0 8.22 4l.47-.8c.11-.2.37-.2.43-.04Z" fill="#a5f7de"/>
</svg>
